<svg viewBox="0 0 96 96" xmlns="http://www.w3.org/2000/svg" xmlns:xlink="http://www.w3.org/1999/xlink" id="Icons_InboxCheck" overflow="hidden"><path d="M71.61 52.322 75.655 62.081 56.955 62.081C56.8811 67.0262 52.8123 70.9751 47.8672 70.9012 43.0262 70.8288 39.1194 66.922 39.047 62.081L20.33 62.081 28.645 42 42.809 42C41.7799 40.1158 41.0214 38.0959 40.556 36L24.635 36 14 61.679 14 84 82 84 82 61.723 76.867 49.336C75.2539 50.5586 73.4862 51.5626 71.61 52.322Z" fill="#3882F6"/><path d="M63 12C52.5066 12 44 20.5066 44 31 44 41.4934 52.5066 50 63 50 73.4934 50 82 41.4934 82 31 82.0044 20.511 73.505 12.0044 63.016 12 63.0107 12 63.0053 12 63 12ZM67.6 31.907C64.832 34.6703 62.047 37.4583 59.245 40.271 56.8637 37.879 54.4773 35.4923 52.086 33.111L54.478 30.719 59.245 35.487C61.559 33.139 63.859 30.808 66.145 28.494 68.431 26.179 69.698 24.937 72.068 22.645 72.135 22.578 72.206 22.512 72.284 22.445 72.3589 22.3811 72.426 22.3086 72.484 22.229L74.91 24.621C72.1 27.423 70.372 29.144 67.6 31.907Z" fill="#3882F6"/></svg>